<svg width="514" height="220" viewBox="0 0 514 220" fill="none" xmlns="http://www.w3.org/2000/svg">
<rect x="399" y="19" width="115" height="48" rx="5" fill="#F8D748"/>
<path d="M399 19H514V43H399V19Z" fill="#255AB5"/>
<g filter="url(#filter0_d_711_433)">
<circle cx="108" cy="46" r="38" fill="url(#paint0_radial_711_433)"/>
</g>
<g filter="url(#filter1_d_711_433)">
<circle cx="55" cy="93" r="49" fill="url(#paint1_radial_711_433)"/>
</g>
<g filter="url(#filter2_d_711_433)">
<circle cx="103" cy="149" r="60" fill="url(#paint2_radial_711_433)"/>
</g>
<path d="M121.2 146.7C122 147.967 122.4 149.3 122.4 150.7C122.4 152.5 121.633 154 120.1 155.2C118.567 156.333 116.667 156.9 114.4 156.9C111.4 156.9 109.033 155.8 107.3 153.6C105.633 151.333 104.633 148.133 104.3 144C102.767 148.4 100.567 151.733 97.7 154C94.9 156.267 91.4333 157.4 87.3 157.4C81.1667 157.4 76.7 155.1 73.9 150.5C71.1 145.833 69.7 139.767 69.7 132.3C69.7 123.033 71.5333 115.867 75.2 110.8C78.9333 105.733 84.2 103.2 91 103.2C94.1333 103.2 96.7667 103.767 98.9 104.9C101.1 106.033 102.667 107.667 103.6 109.8V102.7C103.6 95.7 102.933 89.9333 101.6 85.4C103.733 83.6667 106.033 82.8 108.5 82.8C110.433 82.8 112.033 83.3667 113.3 84.5C114.633 85.6333 115.3 87.1333 115.3 89L115.2 142.8C115.2 146.267 116.3 148 118.5 148C119.767 148 120.667 147.567 121.2 146.7ZM90.8 150.8C94.8667 150.8 97.9667 148.233 100.1 143.1C102.3 137.9 103.4 131.633 103.4 124.3C103.4 119.767 102.733 116.133 101.4 113.4C100.067 110.667 97.5333 109.3 93.8 109.3C86.2 109.3 82.4 116.867 82.4 132C82.4 138.267 83 142.967 84.2 146.1C85.4667 149.233 87.6667 150.8 90.8 150.8ZM170.698 141.9C171.765 142.367 172.298 143.233 172.298 144.5C172.298 145.3 172.065 146.3 171.598 147.5C170.332 150.633 168.032 153.067 164.698 154.8C161.432 156.533 157.498 157.4 152.898 157.4C145.232 157.4 139.165 155.033 134.698 150.3C130.298 145.567 128.098 138.9 128.098 130.3C128.098 121.833 130.265 115.2 134.598 110.4C138.932 105.6 145.132 103.2 153.198 103.2C158.998 103.2 163.732 104.5 167.398 107.1C171.132 109.7 172.998 113.4 172.998 118.2C172.998 123.067 170.998 126.833 166.998 129.5C163.065 132.1 157.765 133.4 151.098 133.4C147.298 133.4 143.932 133.233 140.998 132.9C141.465 138.967 142.998 143.333 145.598 146C148.198 148.6 151.732 149.9 156.198 149.9C159.732 149.9 162.765 149.167 165.298 147.7C167.832 146.233 169.632 144.3 170.698 141.9ZM152.698 107.5C148.965 107.5 146.032 109.367 143.898 113.1C141.832 116.833 140.798 122.033 140.798 128.7C142.665 128.833 144.132 128.9 145.198 128.9C149.598 128.9 153.198 128.033 155.998 126.3C158.798 124.567 160.198 121.233 160.198 116.3C160.198 110.433 157.698 107.5 152.698 107.5ZM198.845 157.4C192.578 157.4 187.845 156.333 184.645 154.2C181.445 152 179.845 149.133 179.845 145.6C179.845 143.8 180.378 142.233 181.445 140.9C182.578 139.567 184.311 138.9 186.645 138.9C187.045 138.9 187.778 138.967 188.845 139.1C188.645 139.9 188.545 140.733 188.545 141.6C188.545 142.333 188.645 143.167 188.845 144.1C189.178 146.567 190.311 148.633 192.245 150.3C194.245 151.967 196.945 152.8 200.345 152.8C203.278 152.8 205.645 152.267 207.445 151.2C209.311 150.067 210.245 148.4 210.245 146.2C210.245 144 209.411 142.233 207.745 140.9C206.145 139.567 203.578 138.067 200.045 136.4C199.178 136.067 198.445 135.733 197.845 135.4C194.311 133.733 191.478 132.233 189.345 130.9C187.211 129.567 185.378 127.8 183.845 125.6C182.311 123.333 181.545 120.567 181.545 117.3C181.545 112.567 183.378 109.033 187.045 106.7C190.711 104.3 195.345 103.1 200.945 103.1C206.478 103.1 210.878 103.967 214.145 105.7C217.411 107.367 219.045 109.767 219.045 112.9C219.045 114.5 218.578 115.867 217.645 117C216.778 118.067 215.378 118.633 213.445 118.7H212.445C211.845 118.7 211.078 118.633 210.145 118.5C210.278 116.1 210.045 114.3 209.445 113.1C208.978 111.367 207.978 110 206.445 109C204.911 108 202.945 107.5 200.545 107.5C198.211 107.5 196.245 108 194.645 109C193.045 109.933 192.245 111.4 192.245 113.4C192.245 115.2 192.778 116.767 193.845 118.1C194.978 119.367 196.311 120.467 197.845 121.4C199.445 122.333 201.711 123.5 204.645 124.9C208.378 126.7 211.311 128.233 213.445 129.5C215.578 130.7 217.411 132.333 218.945 134.4C220.545 136.4 221.345 138.833 221.345 141.7C221.345 146.1 219.511 149.833 215.845 152.9C212.245 155.9 206.578 157.4 198.845 157.4ZM275.508 146.4C276.574 147.467 277.108 148.767 277.108 150.3C277.108 152.3 276.241 154 274.508 155.4C272.841 156.733 270.741 157.4 268.208 157.4C266.074 157.4 264.141 156.8 262.408 155.6C260.741 154.333 259.408 152.467 258.408 150L251.408 134.4C248.408 135.333 245.541 136.067 242.808 136.6C242.808 142.4 242.908 146.367 243.108 148.5C243.308 150.567 243.874 152.667 244.808 154.8C243.808 155.6 242.774 156.233 241.708 156.7C240.641 157.167 239.274 157.4 237.608 157.4C235.141 157.4 233.441 156.8 232.508 155.6C231.574 154.4 231.108 152.733 231.108 150.6V89C231.041 87.0667 231.641 85.5667 232.908 84.5C234.174 83.3667 235.808 82.8 237.808 82.8C240.408 82.8 242.674 83.6667 244.608 85.4C243.941 88.7333 243.508 91.5333 243.308 93.8C243.108 96.0667 242.974 98.7333 242.908 101.8L242.708 107.1L242.608 116.3C244.141 112.233 246.474 109.033 249.608 106.7C252.741 104.367 256.541 103.2 261.008 103.2C265.208 103.2 268.341 104.233 270.408 106.3C272.541 108.367 273.608 111.067 273.608 114.4C273.608 118.2 272.274 121.567 269.608 124.5C266.941 127.433 263.541 129.867 259.408 131.8C260.408 132 261.308 132.533 262.108 133.4C262.908 134.267 263.808 135.467 264.808 137L268.508 143.4C269.374 145 270.041 146.067 270.508 146.6C271.041 147.133 271.774 147.4 272.708 147.4C273.774 147.4 274.708 147.067 275.508 146.4ZM242.808 132.1C248.008 130.633 252.441 128.467 256.108 125.6C259.774 122.733 261.608 119.267 261.608 115.2C261.608 111.267 259.874 109.3 256.408 109.3C253.874 109.3 251.574 110.333 249.508 112.4C247.441 114.4 245.808 117.133 244.608 120.6C243.408 124.067 242.808 127.9 242.808 132.1ZM306.888 157.4C299.222 157.4 293.255 155.033 288.988 150.3C284.788 145.5 282.688 138.833 282.688 130.3C282.688 121.767 284.788 115.133 288.988 110.4C293.255 105.6 299.222 103.2 306.888 103.2C314.488 103.2 320.388 105.6 324.588 110.4C328.855 115.133 330.988 121.767 330.988 130.3C330.988 138.833 328.855 145.5 324.588 150.3C320.388 155.033 314.488 157.4 306.888 157.4ZM306.888 153.1C314.422 153.1 318.188 145.5 318.188 130.3C318.188 115.1 314.422 107.5 306.888 107.5C299.222 107.5 295.388 115.1 295.388 130.3C295.388 145.5 299.222 153.1 306.888 153.1ZM361.852 81.8C366.519 81.8 370.152 82.5667 372.752 84.1C375.352 85.5667 376.652 87.7 376.652 90.5C376.652 92.4333 375.952 94 374.552 95.2C373.219 96.4 371.586 97 369.652 97C367.186 97 365.419 96.4333 364.352 95.3C365.619 93.5 366.252 91.7667 366.252 90.1C366.252 87.1667 364.719 85.7 361.652 85.7C359.586 85.7 358.052 86.5333 357.052 88.2C356.119 89.8 355.552 91.8 355.352 94.2C355.152 96.6 355.052 99.9 355.052 104.1V104.7H357.852C359.119 104.7 361.052 104.667 363.652 104.6C366.319 104.467 367.852 104.367 368.252 104.3L368.152 107.2C368.086 108.133 367.786 108.867 367.252 109.4C366.719 109.933 366.019 110.2 365.152 110.2H355.052V142.4C355.052 147.467 355.619 151.567 356.752 154.7C354.819 156.5 352.586 157.4 350.052 157.4C348.052 157.4 346.419 156.833 345.152 155.7C343.886 154.567 343.252 153.033 343.252 151.1V110.2H342.152C339.486 110.2 337.486 110.3 336.152 110.5L336.252 107.6C336.319 106.667 336.619 105.967 337.152 105.5C337.752 104.967 338.519 104.7 339.452 104.7H343.252V102C343.252 88.5333 349.452 81.8 361.852 81.8ZM401.891 81.8C406.558 81.8 410.191 82.5667 412.791 84.1C415.391 85.5667 416.691 87.7 416.691 90.5C416.691 92.4333 415.991 94 414.591 95.2C413.258 96.4 411.625 97 409.691 97C407.225 97 405.458 96.4333 404.391 95.3C405.658 93.5 406.291 91.7667 406.291 90.1C406.291 87.1667 404.758 85.7 401.691 85.7C399.625 85.7 398.091 86.5333 397.091 88.2C396.158 89.8 395.591 91.8 395.391 94.2C395.191 96.6 395.091 99.9 395.091 104.1V104.7H397.891C399.158 104.7 401.091 104.667 403.691 104.6C406.358 104.467 407.891 104.367 408.291 104.3L408.191 107.2C408.125 108.133 407.825 108.867 407.291 109.4C406.758 109.933 406.058 110.2 405.191 110.2H395.091V142.4C395.091 147.467 395.658 151.567 396.791 154.7C394.858 156.5 392.625 157.4 390.091 157.4C388.091 157.4 386.458 156.833 385.191 155.7C383.925 154.567 383.291 153.033 383.291 151.1V110.2H382.191C379.525 110.2 377.525 110.3 376.191 110.5L376.291 107.6C376.358 106.667 376.658 105.967 377.191 105.5C377.791 104.967 378.558 104.7 379.491 104.7H383.291V102C383.291 88.5333 389.491 81.8 401.891 81.8ZM461.03 141.9C462.097 142.367 462.63 143.233 462.63 144.5C462.63 145.3 462.397 146.3 461.93 147.5C460.664 150.633 458.364 153.067 455.03 154.8C451.764 156.533 447.83 157.4 443.23 157.4C435.564 157.4 429.497 155.033 425.03 150.3C420.63 145.567 418.43 138.9 418.43 130.3C418.43 121.833 420.597 115.2 424.93 110.4C429.264 105.6 435.464 103.2 443.53 103.2C449.33 103.2 454.064 104.5 457.73 107.1C461.464 109.7 463.33 113.4 463.33 118.2C463.33 123.067 461.33 126.833 457.33 129.5C453.397 132.1 448.097 133.4 441.43 133.4C437.63 133.4 434.264 133.233 431.33 132.9C431.797 138.967 433.33 143.333 435.93 146C438.53 148.6 442.064 149.9 446.53 149.9C450.064 149.9 453.097 149.167 455.63 147.7C458.164 146.233 459.964 144.3 461.03 141.9ZM443.03 107.5C439.297 107.5 436.364 109.367 434.23 113.1C432.164 116.833 431.13 122.033 431.13 128.7C432.997 128.833 434.464 128.9 435.53 128.9C439.93 128.9 443.53 128.033 446.33 126.3C449.13 124.567 450.53 121.233 450.53 116.3C450.53 110.433 448.03 107.5 443.03 107.5ZM498.977 103.2C502.71 103.2 505.71 104.2 507.977 106.2C510.31 108.2 511.477 110.933 511.477 114.4C511.477 116.8 510.743 118.833 509.277 120.5C507.81 122.1 506.01 122.933 503.877 123C502.677 123 501.61 122.833 500.677 122.5C499.743 122.167 499.01 121.733 498.477 121.2C499.21 119.933 499.677 118.833 499.877 117.9C500.143 116.9 500.277 115.733 500.277 114.4C500.277 110.733 498.743 108.9 495.677 108.9C493.077 108.9 490.977 110.867 489.377 114.8C487.843 118.733 487.077 124.567 487.077 132.3C487.077 139.767 487.177 144.767 487.377 147.3C487.577 149.767 488.143 152.133 489.077 154.4C488.41 155.067 487.477 155.667 486.277 156.2C485.143 156.733 483.81 157 482.277 157C480.343 157 478.71 156.4 477.377 155.2C476.043 154 475.377 152.333 475.377 150.2V117.4C475.377 115.533 475.143 114.2 474.677 113.4C474.277 112.6 473.61 112.2 472.677 112.2C471.41 112.2 470.543 112.633 470.077 113.5C469.277 112.167 468.877 110.833 468.877 109.5C468.877 107.633 469.51 106.133 470.777 105C472.11 103.867 473.943 103.3 476.277 103.3C479.077 103.3 481.31 104.233 482.977 106.1C484.643 107.9 485.577 110.6 485.777 114.2C488.11 106.867 492.51 103.2 498.977 103.2Z" fill="white"/>
<defs>
<filter id="filter0_d_711_433" x="65" y="0" width="88" height="88" filterUnits="userSpaceOnUse" color-interpolation-filters="sRGB">
<feFlood flood-opacity="0" result="BackgroundImageFix"/>
<feColorMatrix in="SourceAlpha" type="matrix" values="0 0 0 0 0 0 0 0 0 0 0 0 0 0 0 0 0 0 127 0" result="hardAlpha"/>
<feOffset dx="1" dy="-2"/>
<feGaussianBlur stdDeviation="3"/>
<feComposite in2="hardAlpha" operator="out"/>
<feColorMatrix type="matrix" values="0 0 0 0 0 0 0 0 0 0 0 0 0 0 0 0 0 0 0.25 0"/>
<feBlend mode="normal" in2="BackgroundImageFix" result="effect1_dropShadow_711_433"/>
<feBlend mode="normal" in="SourceGraphic" in2="effect1_dropShadow_711_433" result="shape"/>
</filter>
<filter id="filter1_d_711_433" x="0" y="34" width="114" height="114" filterUnits="userSpaceOnUse" color-interpolation-filters="sRGB">
<feFlood flood-opacity="0" result="BackgroundImageFix"/>
<feColorMatrix in="SourceAlpha" type="matrix" values="0 0 0 0 0 0 0 0 0 0 0 0 0 0 0 0 0 0 127 0" result="hardAlpha"/>
<feOffset dx="2" dy="-2"/>
<feGaussianBlur stdDeviation="4"/>
<feComposite in2="hardAlpha" operator="out"/>
<feColorMatrix type="matrix" values="0 0 0 0 0 0 0 0 0 0 0 0 0 0 0 0 0 0 0.15 0"/>
<feBlend mode="normal" in2="BackgroundImageFix" result="effect1_dropShadow_711_433"/>
<feBlend mode="normal" in="SourceGraphic" in2="effect1_dropShadow_711_433" result="shape"/>
</filter>
<filter id="filter2_d_711_433" x="27" y="78" width="142" height="142" filterUnits="userSpaceOnUse" color-interpolation-filters="sRGB">
<feFlood flood-opacity="0" result="BackgroundImageFix"/>
<feColorMatrix in="SourceAlpha" type="matrix" values="0 0 0 0 0 0 0 0 0 0 0 0 0 0 0 0 0 0 127 0" result="hardAlpha"/>
<feMorphology radius="1" operator="dilate" in="SourceAlpha" result="effect1_dropShadow_711_433"/>
<feOffset dx="-5"/>
<feGaussianBlur stdDeviation="5"/>
<feComposite in2="hardAlpha" operator="out"/>
<feColorMatrix type="matrix" values="0 0 0 0 0 0 0 0 0 0 0 0 0 0 0 0 0 0 0.15 0"/>
<feBlend mode="normal" in2="BackgroundImageFix" result="effect1_dropShadow_711_433"/>
<feBlend mode="normal" in="SourceGraphic" in2="effect1_dropShadow_711_433" result="shape"/>
</filter>
<radialGradient id="paint0_radial_711_433" cx="0" cy="0" r="1" gradientUnits="userSpaceOnUse" gradientTransform="translate(113.001 68.1431) rotate(-93.4893) scale(39.6859)">
<stop offset="0.09375" stop-color="#FF8C00"/>
<stop offset="1" stop-color="#FFA538"/>
</radialGradient>
<radialGradient id="paint1_radial_711_433" cx="0" cy="0" r="1" gradientUnits="userSpaceOnUse" gradientTransform="translate(48.5108 120.315) rotate(-94.0196) scale(44.7948)">
<stop stop-color="#E37D00"/>
<stop offset="1" stop-color="#FDAA46"/>
</radialGradient>
<radialGradient id="paint2_radial_711_433" cx="0" cy="0" r="1" gradientUnits="userSpaceOnUse" gradientTransform="translate(103.099 114.76) rotate(88.8171) scale(81.899)">
<stop stop-color="#FFAA43"/>
<stop offset="1" stop-color="#E27C00"/>
</radialGradient>
</defs>
</svg>
